# xmcd
#
# Track frame offsets:
#  150
#  13532
#  25484
#  43509
#  56855
#  68630
#  84908
#  101166
#  114583
#  137379
#  152387
#  167657
#  189257
#  210724
#  226085
#
# Disc length: 3118 seconds
#
# Revision: 0
# Processed by: cddbd v1.4PL0 Copyright (c) Steve Scherf et al.
# Submitted via: AltoMP3_Maker 3.0
#
DISCID=b60c2c0f
DTITLE=Jono Manson - Live Your Love
DYEAR=1900
DGENRE=
TTITLE0=No Alternative
TTITLE1=Jackie´s Dive
TTITLE2=Joe Sawyer
TTITLE3=Scene Of The Crime
TTITLE4=Some Kind Of Fool
TTITLE5=Written In Stone
TTITLE6=Jerusalem
TTITLE7=Live Your Love
TTITLE8=Try And Try Again
TTITLE9=Alibi
TTITLE10=Welcome To The World
TTITLE11=She Don´t Matter Anymore
TTITLE12=Stand Up Straight
TTITLE13=Home Before Dark
TTITLE14=If I Were You
EXTD=
EXTT0=
EXTT1=
EXTT2=
EXTT3=
EXTT4=
EXTT5=
EXTT6=
EXTT7=
EXTT8=
EXTT9=
EXTT10=
EXTT11=
EXTT12=
EXTT13=
EXTT14=
PLAYORDER=
